<svg xmlns="http://www.w3.org/2000/svg" viewBox="0 0 47.5 47.5"><defs><clipPath id="a"><path d="M0 38h38V0H0v38Z"/></clipPath></defs><g clip-path="url(#a)" transform="matrix(1.25 0 0 -1.25 0 47.5)"><path fill="#ffcc4d" d="M36 19c0-9.389-7.611-17-17-17C9.612 2 2 9.611 2 19c0 9.388 7.612 17 17 17 9.389 0 17-7.612 17-17"/><path fill="#664500" d="M11 24s0 2 2 2 2-2 2-2v-2s0-2-2-2-2 2-2 2v2zM23 24s0 2 2 2 2-2 2-2v-2s0-2-2-2-2 2-2 2v2zM28.335 14.371a.501.501 0 0 1-.635.029c-.039-.029-3.922-2.9-8.7-2.9-4.766 0-8.662 2.871-8.7 2.9a.5.5 0 0 1-.729-.657C9.7 13.528 12.788 8.5 19 8.5s9.301 5.028 9.429 5.243a.499.499 0 0 1-.094.628"/></g></svg>